#!OML:ASF F:\VICON\USERDATA\INSTALL\rory3\rory3.ASF
:FULLY-SPECIFIED
:DEGREES
1736
root -1.39916 17.7824 -3.63843 1.23835 12.0659 1.35092
lowerback 4.79968 -3.88316 -1.71479
upperback 0.0766171 -5.13668 5.49663
thorax -1.94715 -2.5369 6.99349
lowerneck -24.0624 -3.563 -8.6636
upperneck 25.0132 -2.9189 3.95759
head 12.5007 -1.59735 2.44428
rclavicle 8.94531e-014 -3.97569e-014
rhumerus 24.9599 -50.8375 -9.6575
rradius 46.2748
rwrist 12.2151
rhand -47.986 -11.8327
rfingers 7.12502
rthumb -20.6549 -40.7536
lclavicle 8.94531e-014 -3.97569e-014
lhumerus 26.4834 44.3445 19.8311
lradius 45.8025
lwrist 4.32507
lhand -25.8332 35.5963
lfingers 7.12502
lthumb 0.706823 65.5749
rfemur -15.1497 7.33284 20.6017
rtibia 34.2464
rfoot -16.024 -0.00587906
rtoes 10.6528
lfemur 4.20605 2.56656 -17.1742
ltibia 34.3792
lfoot -8.20143 6.24929
ltoes -31.8178
1737
root -1.38878 17.786 -3.66906 1.32806 12.2051 1.37672
lowerback 4.77323 -3.87049 -1.74475
upperback 0.000490379 -5.12028 5.44756
thorax -2.01536 -2.52516 6.95958
lowerneck -23.9976 -3.6142 -8.73416
upperneck 25.0406 -2.9647 3.93563
head 12.5039 -1.62857 2.43991
rclavicle 8.15017e-015 4.77083e-015
rhumerus 25.8444 -50.417 -9.58366
rradius 47.4884
rwrist 12.3567
rhand -47.5058 -10.7369
rfingers 7.12502
rthumb -20.1935 -39.7073
lclavicle 8.15017e-015 4.77083e-015
lhumerus 27.5034 43.595 19.6341
lradius 47.4081
lwrist 3.42369
lhand -26.2176 35.5546
lfingers 7.12502
lthumb 0.335584 65.5341
rfemur -15.3253 7.16884 20.4744
rtibia 34.2025
rfoot -15.9166 0.0500001
rtoes 10.9503
lfemur 4.26716 2.52968 -17.2991
ltibia 33.9791
lfoot -8.54194 6.4121
ltoes -31.4752
1738
root -1.37906 17.7906 -3.69937 1.38515 12.3841 1.38217
lowerback 4.79213 -3.88026 -1.78689
upperback -0.075414 -5.13416 5.40074
thorax -2.10346 -2.52798 6.9403
lowerneck -23.9911 -3.59533 -8.69916
upperneck 25.149 -2.94282 3.8993
head 12.5429 -1.62227 2.42563
rclavicle 8.05078e-015 4.77083e-015
rhumerus 26.8 -50.0672 -9.65181
rradius 48.7605
rwrist 12.4757
rhand -46.102 -8.37551
rfingers 7.12502
rthumb -18.8438 -37.4828
lclavicle 8.05078e-015 4.77083e-015
lhumerus 28.4551 42.8808 19.3237
lradius 49.0041
lwrist 2.6069
lhand -27.1713 35.5438
lfingers 7.12502
lthumb -0.585503 65.5228
rfemur -15.4585 6.97765 20.3877
rtibia 34.1608
rfoot -15.8411 0.0329697
rtoes 11.1579
lfemur 4.31854 2.51296 -17.3681
ltibia 33.5797
lfoot -8.93792 6.59467
ltoes -30.4206
1739
root -1.36849 17.7937 -3.72704 1.40539 12.553 1.41723
lowerback 4.75565 -3.89778 -1.88114
upperback -0.0675176 -5.16444 5.37415
thorax -2.06499 -2.54365 6.96329
lowerneck -24.1119 -3.60859 -8.77051
upperneck 25.2379 -2.93386 3.93494
head 12.6037 -1.62074 2.45376
rclavicle 1.77912e-014 4.77083e-015
rhumerus 27.8434 -49.8284 -9.76183
rradius 50.051
rwrist 12.608
rhand -45.4735 -7.30666
rfingers 7.12502
rthumb -18.2393 -36.4715
lclavicle 1.77912e-014 4.77083e-015
lhumerus 29.3971 42.3531 19.0694
lradius 50.6576
lwrist 1.7455
lhand -28.2473 35.8978
lfingers 7.12502
lthumb -1.62474 65.8714
rfemur -15.5111 6.71932 20.2707
rtibia 34.101
rfoot -15.7378 0.0441729
rtoes 11.0664
lfemur 4.42991 2.56365 -17.4541
ltibia 33.1936
lfoot -9.35605 6.68641
ltoes -29.9466
1740
root -1.35864 17.795 -3.75821 1.37889 12.6828 1.38531
lowerback 4.75343 -3.90427 -1.89854
upperback -0.0224207 -5.17616 5.34603
thorax -2.0165 -2.55161 6.9411
lowerneck -24.2223 -3.6359 -8.86713
upperneck 25.2562 -2.94391 4.0012
head 12.6366 -1.6248 2.49358
rclavicle 2.46493e-014 -1.74931e-014
rhumerus 28.7383 -49.5354 -9.77412
rradius 51.4375
rwrist 12.6202
rhand -45.6362 -7.16191
rfingers 7.12502
rthumb -18.3957 -36.3121
lclavicle 2.46493e-014 -1.74931e-014
lhumerus 30.3927 41.9073 18.9072
lradius 52.3799
lwrist 0.821443
lhand -28.1715 35.2704
lfingers 7.12502
lthumb -1.55158 65.2445
rfemur -15.5536 6.50869 20.2252
rtibia 34.0361
rfoot -15.542 0.0933448
rtoes 10.9611
lfemur 4.58939 2.56936 -17.4929
ltibia 32.809
lfoot -9.64394 6.8048
ltoes -30.2359
1741
root -1.35011 17.7993 -3.79106 1.37509 12.782 1.35097
lowerback 4.80062 -3.89366 -1.89966
upperback -0.0438232 -5.16233 5.28181
thorax -2.07283 -2.5427 6.87828
lowerneck -24.1454 -3.60787 -8.841
upperneck 25.2062 -2.91537 3.98368
head 12.5984 -1.61185 2.48713
rclavicle 1.5704e-014 -6.36111e-015
rhumerus 29.5658 -49.1754 -9.84068
rradius 52.8427
rwrist 12.5993
rhand -45.8226 -6.64704
rfingers 7.12502
rthumb -18.5751 -35.7802
lclavicle 1.5704e-014 -6.36111e-015
lhumerus 31.4395 41.4457 18.7918
lradius 54.1054
lwrist -0.0180482
lhand -28.4731 34.548
lfingers 7.12502
lthumb -1.8428 64.5198
rfemur -15.6321 6.34642 20.1811
rtibia 33.9609
rfoot -15.3151 0.12443
rtoes 11.1355
lfemur 4.71913 2.62145 -17.5127
ltibia 32.4353
lfoot -9.97627 6.93481
ltoes -30.0042
1742
root -1.33908 17.8028 -3.82517 1.44365 12.8898 1.30775
lowerback 4.73684 -3.86345 -1.86842
upperback -0.0597321 -5.12113 5.23673
thorax -2.06593 -2.52218 6.80626
lowerneck -24.0977 -3.63085 -8.85259
upperneck 25.1694 -2.93675 3.94877
head 12.5758 -1.62697 2.47124
rclavicle 2.82274e-014 9.54166e-015
rhumerus 30.4482 -48.9285 -10.0191
rradius 54.3145
rwrist 12.6035
rhand -45.7691 -5.92542
rfingers 7.12502
rthumb -18.5236 -35.0635
lclavicle 2.82274e-014 9.54166e-015
lhumerus 32.5025 41.0302 18.7136
lradius 55.8446
lwrist -0.72913
lhand -29.2258 34.1801
lfingers 7.12502
lthumb -2.56982 64.1443
rfemur -15.7919 6.16808 20.1285
rtibia 33.8931
rfoot -15.1482 0.1604
rtoes 11.1591
lfemur 4.74879 2.73094 -17.5331
ltibia 32.0736
lfoot -10.2859 7.14184
ltoes -29.9568
1743
root -1.32939 17.8052 -3.86019 1.44594 13.0468 1.1726
lowerback 4.70955 -3.86243 -1.77559
upperback -0.0328936 -5.11499 5.25007
thorax -2.03055 -2.52123 6.76363
lowerneck -24.2597 -3.71469 -8.97667
upperneck 25.2804 -2.99304 3.95019
head 12.6597 -1.66425 2.48314
rclavicle 5.1684e-014 9.54166e-015
rhumerus 31.3907 -48.661 -10.2148
rradius 55.8682
rwrist 12.4975
rhand -45.543 -5.08113
rfingers 7.12502
rthumb -18.3061 -34.2397
lclavicle 5.1684e-014 9.54166e-015
lhumerus 33.3766 40.6651 18.5489
lradius 57.693
lwrist -1.26186
lhand -29.6265 33.071
lfingers 7.12502
lthumb -2.95678 63.0303
rfemur -15.9068 6.07166 20.1925
rtibia 33.8262
rfoot -15.0312 0.0902091
rtoes 11.5326
lfemur 4.81612 2.80668 -17.4487
ltibia 31.7237
lfoot -10.5774 7.32045
ltoes -30.0976
1744
root -1.31881 17.8079 -3.89515 1.42439 13.2267 1.18592
lowerback 4.78832 -3.89389 -1.85254
upperback -0.0562683 -5.16028 5.23954
thorax -2.08722 -2.54136 6.80627
lowerneck -24.2301 -3.73194 -9.12935
upperneck 25.2983 -2.96991 3.97988
head 12.6633 -1.66568 2.52459
rclavicle -5.61567e-014 6.83819e-014
rhumerus 32.1483 -48.1843 -10.2399
rradius 57.5527
rwrist 12.1786
rhand -45.6375 -4.60176
rfingers 7.12502
rthumb -18.397 -33.7518
lclavicle -5.61567e-014 6.83819e-014
lhumerus 34.1965 40.2871 18.4868
lradius 59.65
lwrist -1.54587
lhand -29.9717 32.283
lfingers 7.12502
lthumb -3.29015 62.2374
rfemur -15.9598 5.85879 20.1024
rtibia 33.7881
rfoot -14.9837 0.0653616
rtoes 11.595
lfemur 4.92894 2.86671 -17.5273
ltibia 31.375
lfoot -10.7375 7.48027
ltoes -30.2959
1745
root -1.30978 17.8122 -3.93003 1.43804 13.4388 1.21832
lowerback 4.87023 -3.9236 -1.96006
upperback -0.118479 -5.20504 5.19085
thorax -2.18676 -2.55903 6.82836
lowerneck -24.1143 -3.69115 -9.23128
upperneck 25.3017 -2.91116 4.06875
head 12.6407 -1.63866 2.58735
rclavicle 2.69353e-014 -3.18055e-015
rhumerus 32.7069 -47.635 -10.2221
rradius 59.3761
rwrist 11.7417
rhand -46.0965 -4.65726
rfingers 7.12502
rthumb -18.8385 -33.765
lclavicle 2.69353e-014 -3.18055e-015
lhumerus 35.0402 39.8254 18.3724
lradius 61.6222
lwrist -1.45179
lhand -29.6948 30.2261
lfingers 7.12502
lthumb -3.0227 60.1844
rfemur -16.0445 5.60688 19.9898
rtibia 33.7728
rfoot -14.9501 0.0335233
rtoes 11.5773
lfemur 4.98394 2.87109 -17.6276
ltibia 31.0205
lfoot -10.9194 7.66471
ltoes -30.0444
1746
root -1.30061 17.8167 -3.96787 1.49659 13.642 1.24222
lowerback 4.91301 -3.94694 -2.01897
upperback -0.136398 -5.24056 5.12426
thorax -2.22565 -2.57495 6.79763
lowerneck -24.2142 -3.683 -9.18508
upperneck 25.3375 -2.88378 3.99334
head 12.6706 -1.63213 2.55542
rclavicle 1.63997e-014 2.8625e-014
rhumerus 33.333 -47.2073 -10.4213
rradius 61.28
rwrist 11.2589
rhand -46.5086 -4.30545
rfingers 7.12502
rthumb -19.2349 -33.3742
lclavicle 1.63997e-014 2.8625e-014
lhumerus 35.79 39.4488 18.1397
lradius 63.6402
lwrist -0.950528
lhand -30.2729 30.7484
lfingers 7.12502
lthumb -3.581 60.6981
rfemur -16.2002 5.43111 19.882
rtibia 33.7779
rfoot -14.8819 -0.0945778
rtoes 11.5349
lfemur 4.97876 2.87846 -17.7237
ltibia 30.6648
lfoot -11.2526 7.89676
ltoes -29.7457
1747
root -1.28908 17.8205 -4.00693 1.60408 13.8264 1.26845
lowerback 4.82745 -3.95891 -2.0459
upperback -0.115125 -5.26109 5.04986
thorax -2.15763 -2.58744 6.72625
lowerneck -24.2872 -3.71833 -9.12614
upperneck 25.2692 -2.91083 3.87295
head 12.6568 -1.65292 2.49235
rclavicle -6.71892e-014 7.95139e-015
rhumerus 33.8617 -46.8348 -10.5726
rradius 63.215
rwrist 10.5968
rhand -46.7605 -3.20958
rfingers 7.12502
rthumb -19.477 -32.2541
lclavicle -6.71892e-014 7.95139e-015
lhumerus 36.5894 39.1886 18.0461
lradius 65.6833
lwrist -0.220265
lhand -30.3623 30.4114
lfingers 7.12502
lthumb -3.66737 60.3596
rfemur -16.4207 5.2381 19.763
rtibia 33.7804
rfoot -14.7811 -0.21689
rtoes 11.0627
lfemur 4.94378 2.9578 -17.8294
ltibia 30.3198
lfoot -11.6612 8.14603
ltoes -29.5678
1748
root -1.27812 17.8218 -4.04697 1.66764 14.0247 1.18377
lowerback 4.72286 -3.99556 -2.01239
upperback -0.0945835 -5.30951 5.0422
thorax -2.0753 -2.61474 6.6909
lowerneck -24.2704 -3.7337 -9.1927
upperneck 25.1855 -2.90253 3.85992
head 12.6208 -1.65621 2.49854
rclavicle 2.24627e-014 -2.38542e-014
rhumerus 34.3961 -46.423 -10.7214
rradius 65.1891
rwrist 9.94936
rhand -46.8762 -2.23669
rfingers 7.12502
rthumb -19.5882 -31.2699
lclavicle 2.24627e-014 -2.38542e-014
lhumerus 37.4293 38.9782 18.1249
lradius 67.6701
lwrist 0.554791
lhand -30.0917 27.2319
lfingers 7.12502
lthumb -3.40605 57.1844
rfemur -16.6188 5.0616 19.7709
rtibia 33.7722
rfoot -14.7005 -0.380921
rtoes 10.6748
lfemur 4.91259 3.10399 -17.8096
ltibia 30.0141
lfoot -11.8639 8.40274
ltoes -29.2707
1749
root -1.26895 17.8232 -4.0855 1.65236 14.2155 1.12444
lowerback 4.71519 -4.02715 -2.05495
upperback -0.082425 -5.35448 5.04956
thorax -2.048 -2.63795 6.72332
lowerneck -24.1963 -3.72875 -9.32471
upperneck 25.14 -2.85738 3.88229
head 12.5879 -1.64597 2.53684
rclavicle 2.94201e-014 -1.74931e-014
rhumerus 34.9411 -45.9651 -10.904
rradius 67.2528
rwrist 9.13699
rhand -46.7426 -1.12344
rfingers 7.12502
rthumb -19.4598 -30.1697
lclavicle 2.94201e-014 -1.74931e-014
lhumerus 38.154 38.6905 18.1782
lradius 69.6673
lwrist 1.84379
lhand -31.3413 28.0375
lfingers 7.12502
lthumb -4.61268 57.9672
rfemur -16.7366 4.87929 19.7619
rtibia 33.7653
rfoot -14.5944 -0.50748
rtoes 10.5305
lfemur 4.9469 3.27166 -17.8113
ltibia 29.7224
lfoot -12.0183 8.7676
ltoes -28.9965
1750
root -1.25989 17.8237 -4.12527 1.58593 14.4355 1.049
lowerback 4.78898 -4.02514 -2.06811
upperback -0.0672175 -5.35286 5.03038
thorax -2.07438 -2.63652 6.71614
lowerneck -24.0757 -3.78364 -9.42415
upperneck 25.0532 -2.91945 3.91852
head 12.5373 -1.67747 2.55534
rclavicle 5.26779e-015 -1.90833e-014
rhumerus 35.3391 -45.5294 -11.0311
rradius 69.3568
rwrist 8.26549
rhand -46.5137 0.278581
rfingers 7.12502
rthumb -19.2397 -28.7897
lclavicle 5.26779e-015 -1.90833e-014
lhumerus 38.9598 38.326 18.4105
lradius 71.6558
lwrist 3.30452
lhand -32.1353 26.2947
lfingers 7.12502
lthumb -5.37939 56.2064
rfemur -16.7983 4.73489 19.7662
rtibia 33.7611
rfoot -14.5998 -0.580649
rtoes 10.4776
lfemur 5.02836 3.43677 -17.799
ltibia 29.4474
lfoot -12.3178 9.1644
ltoes -28.8834
